<?xml version="1.0" encoding="UTF-8"?>
<svg version="1.1" xmlns="http://www.w3.org/2000/svg" width="291" height="297">
<path d="M0 0 C1.4992711 1.41651913 2.98181994 2.85122117 4.4375 4.3125 C6.41496805 6.13843931 6.41496805 6.13843931 9 7 C14.195352 6.52196458 18.94400986 5.20252301 23.90917969 3.64746094 C32.29208859 1.05153913 41.17714562 -1.23744952 50 0 C52 2 52 2 52 5.6875 C51.39887593 10.10045787 49.97086532 14.07821091 48.3125 18.1875 C48.05573486 18.8273584 47.79896973 19.4672168 47.53442383 20.12646484 C46.17657935 23.41992504 44.71640996 26.59148985 43.0234375 29.7265625 C41.2605136 33.08760439 39.80967991 36.26266394 39 40 C40.08379498 43.0449478 41.59072163 44.83606182 43.72265625 47.2578125 C46.44971342 50.54150741 48.21205363 53.92487074 50.0625 57.75 C50.39894531 58.44182373 50.73539063 59.13364746 51.08203125 59.84643555 C52.06624688 61.8923547 53.03464134 63.94512894 54 66 C54.53753906 67.12277344 55.07507813 68.24554688 55.62890625 69.40234375 C70.08705808 101.14987818 74.49949793 139.05980487 62.5625 172.27734375 C57.53209095 184.7176777 50.43736502 194.5771317 41 204 C40.41863281 204.65226563 39.83726562 205.30453125 39.23828125 205.9765625 C30.63824066 215.46476849 17.59116831 221.90839923 6 227 C5.34 227 4.68 227 4 227 C3.767528 233.48010171 3.767528 233.48010171 6.7421875 238.9765625 C8.16980995 240.12179809 9.60749668 241.25459421 11.0546875 242.375 C14.10653965 244.92433835 14.99724047 247.17697928 16 251 C16.26549078 255.01810084 16.32934899 258.98447573 16 263 C15 264 15 264 12.56394958 264.12025452 C11.48251175 264.11803391 10.40107391 264.11581329 9.28686523 264.11352539 C8.0656749 264.11344986 6.84448456 264.11337433 5.58628845 264.11329651 C4.24372314 264.10818911 2.90115825 264.10297311 1.55859375 264.09765625 C0.19238842 264.09579199 -1.17381757 264.09436813 -2.5400238 264.09336853 C-6.14201695 264.08954394 -9.74397 264.07971417 -13.34594727 264.06866455 C-17.01903745 264.05844916 -20.69213409 264.05387064 -24.36523438 264.04882812 C-31.57684123 264.03809184 -38.788415 264.02101614 -46 264 C-46.74630198 259.33954594 -47.10049257 256.13269747 -45.625 251.625 C-44.13447852 246.70423731 -43.41962507 242.11942582 -43 237 C-44.14597656 237.15984375 -45.29195312 237.3196875 -46.47265625 237.484375 C-59.11436655 239.05035888 -76.31958823 239.84020589 -88 234 C-87.69089947 239.60644409 -87.20249218 244.83424543 -85.4375 250.1875 C-83.96837529 254.67370521 -83.65769468 258.29330181 -84 263 C-85 264 -85 264 -87.39808655 264.12025452 C-88.46175949 264.11803391 -89.52543243 264.11581329 -90.62133789 264.11352539 C-91.82250748 264.11344986 -93.02367706 264.11337433 -94.26124573 264.11329651 C-95.5685112 264.10813522 -96.87577667 264.10297394 -98.22265625 264.09765625 C-99.56644132 264.09579198 -100.91022707 264.09436812 -102.25401306 264.09336853 C-105.79682277 264.08954402 -109.3395917 264.07971432 -112.88238525 264.06866455 C-116.49515227 264.05844899 -120.10792584 264.0538706 -123.72070312 264.04882812 C-130.8138188 264.03809198 -137.90690674 264.02101636 -145 264 C-146.9372885 258.18813449 -146.14303852 252.83478713 -144.1953125 247.15234375 C-142.77084442 244.58737017 -141.30496077 243.66940954 -138.875 242.0625 C-136.483383 240.24031562 -135.20508671 238.91015324 -134.53613281 235.94140625 C-133.9154609 230.63629476 -133.90968194 225.33441046 -134 220 C-134.86496094 219.74863281 -135.72992188 219.49726563 -136.62109375 219.23828125 C-155.49857398 212.32017578 -169.38355902 193.73288601 -177.90649414 176.34008789 C-188.69261356 152.94545702 -188.86412343 124.75510297 -183 100 C-182.83902832 99.2879541 -182.67805664 98.5759082 -182.51220703 97.84228516 C-178.41559708 80.12966135 -170.97266008 63.66322739 -161.75 48.0546875 C-159.92355251 45.09931695 -159.92355251 45.09931695 -159 42 C-159.93551172 39.37283486 -159.93551172 39.37283486 -161.421875 36.51953125 C-161.95296875 35.43736328 -162.4840625 34.35519531 -163.03125 33.24023438 C-163.5984375 32.10908203 -164.165625 30.97792969 -164.75 29.8125 C-174.45433091 10.25645932 -174.45433091 10.25645932 -174.3125 4.125 C-174.30863281 3.38507812 -174.30476563 2.64515625 -174.30078125 1.8828125 C-174 0 -174 0 -172 -2 C-164.94260631 -2.63114903 -158.62014702 -0.92159076 -151.8125 0.8125 C-150.70132813 1.08151123 -149.59015625 1.35052246 -148.4453125 1.62768555 C-143.85502071 2.74330673 -139.29048593 3.86308479 -134.79296875 5.3125 C-129.2050736 7.17653843 -129.2050736 7.17653843 -123.72265625 5.8984375 C-121.51355127 4.19924003 -121.51355127 4.19924003 -119.4296875 2.17578125 C-87.07859516 -26.79456993 -34.02459548 -23.22218577 0 0 Z " fill="#5BC056" transform="translate(208,32)"/>
<path d="M0 0 C1.4992711 1.41651913 2.98181994 2.85122117 4.4375 4.3125 C6.41496805 6.13843931 6.41496805 6.13843931 9 7 C14.195352 6.52196458 18.94400986 5.20252301 23.90917969 3.64746094 C32.29208859 1.05153913 41.17714562 -1.23744952 50 0 C52 2 52 2 52 5.6875 C51.39887593 10.10045787 49.97086532 14.07821091 48.3125 18.1875 C48.05573486 18.8273584 47.79896973 19.4672168 47.53442383 20.12646484 C46.17657935 23.41992504 44.71640996 26.59148985 43.0234375 29.7265625 C41.2605136 33.08760439 39.80967991 36.26266394 39 40 C40.08379498 43.0449478 41.59072163 44.83606182 43.72265625 47.2578125 C46.44971342 50.54150741 48.21205363 53.92487074 50.0625 57.75 C50.39894531 58.44182373 50.73539063 59.13364746 51.08203125 59.84643555 C52.06624688 61.8923547 53.03464134 63.94512894 54 66 C54.53753906 67.12277344 55.07507813 68.24554688 55.62890625 69.40234375 C70.08705808 101.14987818 74.49949793 139.05980487 62.5625 172.27734375 C57.53209095 184.7176777 50.43736502 194.5771317 41 204 C40.41863281 204.65226563 39.83726562 205.30453125 39.23828125 205.9765625 C30.63824066 215.46476849 17.59116831 221.90839923 6 227 C5.34 227 4.68 227 4 227 C3.767528 233.48010171 3.767528 233.48010171 6.7421875 238.9765625 C8.16980995 240.12179809 9.60749668 241.25459421 11.0546875 242.375 C14.10653965 244.92433835 14.99724047 247.17697928 16 251 C16.26549078 255.01810084 16.32934899 258.98447573 16 263 C15 264 15 264 12.56394958 264.12025452 C11.48251175 264.11803391 10.40107391 264.11581329 9.28686523 264.11352539 C8.0656749 264.11344986 6.84448456 264.11337433 5.58628845 264.11329651 C4.24372314 264.10818911 2.90115825 264.10297311 1.55859375 264.09765625 C0.19238842 264.09579199 -1.17381757 264.09436813 -2.5400238 264.09336853 C-6.14201695 264.08954394 -9.74397 264.07971417 -13.34594727 264.06866455 C-17.01903745 264.05844916 -20.69213409 264.05387064 -24.36523438 264.04882812 C-31.57684123 264.03809184 -38.788415 264.02101614 -46 264 C-46.74630198 259.33954594 -47.10049257 256.13269747 -45.625 251.625 C-44.13447852 246.70423731 -43.41962507 242.11942582 -43 237 C-44.14597656 237.15984375 -45.29195312 237.3196875 -46.47265625 237.484375 C-59.11436655 239.05035888 -76.31958823 239.84020589 -88 234 C-87.69089947 239.60644409 -87.20249218 244.83424543 -85.4375 250.1875 C-83.96837529 254.67370521 -83.65769468 258.29330181 -84 263 C-85 264 -85 264 -87.39808655 264.12025452 C-88.46175949 264.11803391 -89.52543243 264.11581329 -90.62133789 264.11352539 C-91.82250748 264.11344986 -93.02367706 264.11337433 -94.26124573 264.11329651 C-95.5685112 264.10813522 -96.87577667 264.10297394 -98.22265625 264.09765625 C-99.56644132 264.09579198 -100.91022707 264.09436812 -102.25401306 264.09336853 C-105.79682277 264.08954402 -109.3395917 264.07971432 -112.88238525 264.06866455 C-116.49515227 264.05844899 -120.10792584 264.0538706 -123.72070312 264.04882812 C-130.8138188 264.03809198 -137.90690674 264.02101636 -145 264 C-146.9372885 258.18813449 -146.14303852 252.83478713 -144.1953125 247.15234375 C-142.77084442 244.58737017 -141.30496077 243.66940954 -138.875 242.0625 C-136.483383 240.24031562 -135.20508671 238.91015324 -134.53613281 235.94140625 C-133.9154609 230.63629476 -133.90968194 225.33441046 -134 220 C-134.86496094 219.74863281 -135.72992188 219.49726563 -136.62109375 219.23828125 C-155.49857398 212.32017578 -169.38355902 193.73288601 -177.90649414 176.34008789 C-188.69261356 152.94545702 -188.86412343 124.75510297 -183 100 C-182.83902832 99.2879541 -182.67805664 98.5759082 -182.51220703 97.84228516 C-178.41559708 80.12966135 -170.97266008 63.66322739 -161.75 48.0546875 C-159.92355251 45.09931695 -159.92355251 45.09931695 -159 42 C-159.93551172 39.37283486 -159.93551172 39.37283486 -161.421875 36.51953125 C-161.95296875 35.43736328 -162.4840625 34.35519531 -163.03125 33.24023438 C-163.5984375 32.10908203 -164.165625 30.97792969 -164.75 29.8125 C-174.45433091 10.25645932 -174.45433091 10.25645932 -174.3125 4.125 C-174.30863281 3.38507812 -174.30476563 2.64515625 -174.30078125 1.8828125 C-174 0 -174 0 -172 -2 C-164.94260631 -2.63114903 -158.62014702 -0.92159076 -151.8125 0.8125 C-150.70132813 1.08151123 -149.59015625 1.35052246 -148.4453125 1.62768555 C-143.85502071 2.74330673 -139.29048593 3.86308479 -134.79296875 5.3125 C-129.2050736 7.17653843 -129.2050736 7.17653843 -123.72265625 5.8984375 C-121.51355127 4.19924003 -121.51355127 4.19924003 -119.4296875 2.17578125 C-87.07859516 -26.79456993 -34.02459548 -23.22218577 0 0 Z M-139.22705078 28.98876953 C-158.59869161 50.96392475 -171.57691998 78.33944298 -177 107 C-177.24492187 108.25683594 -177.48984375 109.51367188 -177.7421875 110.80859375 C-181.66439429 134.90598753 -179.70033955 158.99104407 -167.08984375 180.21484375 C-163.15314019 185.46132906 -158.44207402 187.97948763 -152.5 190.5 C-151.79222412 190.80333252 -151.08444824 191.10666504 -150.35522461 191.41918945 C-144.02327518 194.08081496 -137.63603153 196.21903471 -131 198 C-129.82308594 198.33773437 -128.64617187 198.67546875 -127.43359375 199.0234375 C-87.65509484 209.84266267 -40.47599237 208.59006173 -3.8125 188.25 C2.53440211 184.58648272 7.85513229 180.2004879 13 175 C13.62261719 174.41089844 14.24523437 173.82179687 14.88671875 173.21484375 C29.05620515 158.72694192 33.39917871 136.81467095 33.3125 117.375 C33.30839111 115.49530518 33.30839111 115.49530518 33.30419922 113.57763672 C33.14561979 99.11409895 32.44319772 83.8705042 28 70 C26.97261719 69.90203125 25.94523438 69.8040625 24.88671875 69.703125 C10.30588127 68.18575808 -2.00447953 64.89594873 -11.6171875 53.05078125 C-18.48206045 42.8698256 -19.15876056 32.99140481 -19.0625 21.0625 C-19.05798828 19.99708984 -19.05347656 18.93167969 -19.04882812 17.83398438 C-19.03711787 15.22259709 -19.02071724 12.61132876 -19 10 C-17.24970238 10.31082872 -15.49977306 10.62373179 -13.75 10.9375 C-12.77546875 11.11152344 -11.8009375 11.28554688 -10.796875 11.46484375 C-8 12 -8 12 -5.84375 12.625 C-2.93829621 13.21593975 -0.70002006 12.04318957 2 11 C-9.04716189 -1.25896792 -29.82220502 -9.53555637 -46 -11 C-84.61765137 -12.73375243 -112.97731968 0.72921489 -139.22705078 28.98876953 Z " fill="#2DA747" transform="translate(208,32)"/>
<path d="M0 0 C1.4992711 1.41651913 2.98181994 2.85122117 4.4375 4.3125 C6.41496805 6.13843931 6.41496805 6.13843931 9 7 C14.195352 6.52196458 18.94400986 5.20252301 23.90917969 3.64746094 C32.29208859 1.05153913 41.17714562 -1.23744952 50 0 C52 2 52 2 52 5.6875 C51.39887593 10.10045787 49.97086532 14.07821091 48.3125 18.1875 C48.05573486 18.8273584 47.79896973 19.4672168 47.53442383 20.12646484 C46.17657935 23.41992504 44.71640996 26.59148985 43.0234375 29.7265625 C41.2605136 33.08760439 39.80967991 36.26266394 39 40 C40.08379498 43.0449478 41.59072163 44.83606182 43.72265625 47.2578125 C46.44971342 50.54150741 48.21205363 53.92487074 50.0625 57.75 C50.39894531 58.44182373 50.73539063 59.13364746 51.08203125 59.84643555 C52.06624688 61.8923547 53.03464134 63.94512894 54 66 C54.53753906 67.12277344 55.07507813 68.24554688 55.62890625 69.40234375 C70.08705808 101.14987818 74.49949793 139.05980487 62.5625 172.27734375 C57.53209095 184.7176777 50.43736502 194.5771317 41 204 C40.41863281 204.65226563 39.83726562 205.30453125 39.23828125 205.9765625 C30.63824066 215.46476849 17.59116831 221.90839923 6 227 C5.34 227 4.68 227 4 227 C3.767528 233.48010171 3.767528 233.48010171 6.7421875 238.9765625 C8.16980995 240.12179809 9.60749668 241.25459421 11.0546875 242.375 C14.10653965 244.92433835 14.99724047 247.17697928 16 251 C16.26549078 255.01810084 16.32934899 258.98447573 16 263 C15 264 15 264 12.56394958 264.12025452 C11.48251175 264.11803391 10.40107391 264.11581329 9.28686523 264.11352539 C8.0656749 264.11344986 6.84448456 264.11337433 5.58628845 264.11329651 C4.24372314 264.10818911 2.90115825 264.10297311 1.55859375 264.09765625 C0.19238842 264.09579199 -1.17381757 264.09436813 -2.5400238 264.09336853 C-6.14201695 264.08954394 -9.74397 264.07971417 -13.34594727 264.06866455 C-17.01903745 264.05844916 -20.69213409 264.05387064 -24.36523438 264.04882812 C-31.57684123 264.03809184 -38.788415 264.02101614 -46 264 C-46.74630198 259.33954594 -47.10049257 256.13269747 -45.625 251.625 C-44.13447852 246.70423731 -43.41962507 242.11942582 -43 237 C-44.14597656 237.15984375 -45.29195312 237.3196875 -46.47265625 237.484375 C-59.11436655 239.05035888 -76.31958823 239.84020589 -88 234 C-87.69089947 239.60644409 -87.20249218 244.83424543 -85.4375 250.1875 C-83.96837529 254.67370521 -83.65769468 258.29330181 -84 263 C-85 264 -85 264 -87.39808655 264.12025452 C-88.46175949 264.11803391 -89.52543243 264.11581329 -90.62133789 264.11352539 C-91.82250748 264.11344986 -93.02367706 264.11337433 -94.26124573 264.11329651 C-95.5685112 264.10813522 -96.87577667 264.10297394 -98.22265625 264.09765625 C-99.56644132 264.09579198 -100.91022707 264.09436812 -102.25401306 264.09336853 C-105.79682277 264.08954402 -109.3395917 264.07971432 -112.88238525 264.06866455 C-116.49515227 264.05844899 -120.10792584 264.0538706 -123.72070312 264.04882812 C-130.8138188 264.03809198 -137.90690674 264.02101636 -145 264 C-146.9372885 258.18813449 -146.14303852 252.83478713 -144.1953125 247.15234375 C-142.77084442 244.58737017 -141.30496077 243.66940954 -138.875 242.0625 C-136.483383 240.24031562 -135.20508671 238.91015324 -134.53613281 235.94140625 C-133.9154609 230.63629476 -133.90968194 225.33441046 -134 220 C-134.86496094 219.74863281 -135.72992188 219.49726563 -136.62109375 219.23828125 C-155.49857398 212.32017578 -169.38355902 193.73288601 -177.90649414 176.34008789 C-188.69261356 152.94545702 -188.86412343 124.75510297 -183 100 C-182.83902832 99.2879541 -182.67805664 98.5759082 -182.51220703 97.84228516 C-178.41559708 80.12966135 -170.97266008 63.66322739 -161.75 48.0546875 C-159.92355251 45.09931695 -159.92355251 45.09931695 -159 42 C-159.93551172 39.37283486 -159.93551172 39.37283486 -161.421875 36.51953125 C-161.95296875 35.43736328 -162.4840625 34.35519531 -163.03125 33.24023438 C-163.5984375 32.10908203 -164.165625 30.97792969 -164.75 29.8125 C-174.45433091 10.25645932 -174.45433091 10.25645932 -174.3125 4.125 C-174.30863281 3.38507812 -174.30476563 2.64515625 -174.30078125 1.8828125 C-174 0 -174 0 -172 -2 C-164.94260631 -2.63114903 -158.62014702 -0.92159076 -151.8125 0.8125 C-150.70132813 1.08151123 -149.59015625 1.35052246 -148.4453125 1.62768555 C-143.85502071 2.74330673 -139.29048593 3.86308479 -134.79296875 5.3125 C-129.2050736 7.17653843 -129.2050736 7.17653843 -123.72265625 5.8984375 C-121.51355127 4.19924003 -121.51355127 4.19924003 -119.4296875 2.17578125 C-87.07859516 -26.79456993 -34.02459548 -23.22218577 0 0 Z M-139.22705078 28.98876953 C-158.59869161 50.96392475 -171.57691998 78.33944298 -177 107 C-177.24492187 108.25683594 -177.48984375 109.51367188 -177.7421875 110.80859375 C-181.53752575 134.12652805 -179.2997711 155.80002271 -169 177 C-168.41605469 178.28003906 -168.41605469 178.28003906 -167.8203125 179.5859375 C-164.26323046 186.77799389 -158.50760854 192.28364828 -153 198 C-152.42507812 198.6496875 -151.85015625 199.299375 -151.2578125 199.96875 C-140.84980914 211.40137545 -125.85212695 217.81267261 -112.03027344 224.01367188 C-110 225 -110 225 -107 227 C-114.4384254 226.5898967 -120.92848365 225.35717212 -128 223 C-128 229.6 -128 236.2 -128 243 C-129.65 243.33 -131.3 243.66 -133 244 C-136.21177906 246.01669848 -137.73033361 247.40930219 -139.3125 250.875 C-140.21486178 254.44335589 -140.21486178 254.44335589 -140 260 C-123.5 260 -107 260 -90 260 C-90.58094182 251.90795938 -90.58094182 251.90795938 -92 248 C-92.27059842 244.74422851 -92.44486289 241.48870817 -92.62109375 238.2265625 C-92.98464985 235.13071367 -93.69840153 232.81398211 -95 230 C-93.54178519 229.97207674 -92.08339757 229.95320582 -90.625 229.9375 C-89.81289062 229.92589844 -89.00078125 229.91429687 -88.1640625 229.90234375 C-85.57480764 229.98225902 -83.10248219 230.19593598 -80.53320312 230.48632812 C-74.78999861 231.0713715 -69.07404909 231.22189517 -63.3046875 231.31640625 C-62.23123077 231.33718735 -61.15777405 231.35796844 -60.05178833 231.37937927 C-56.65958375 231.44419128 -53.26730907 231.50343834 -49.875 231.5625 C-47.5598889 231.6057504 -45.24478461 231.64936664 -42.9296875 231.69335938 C-37.28652816 231.79980148 -31.64329909 231.90125655 -26 232 C-29.3 232.99 -32.6 233.98 -36 235 C-36.03738281 235.78503906 -36.07476562 236.57007813 -36.11328125 237.37890625 C-36.71642644 247.01740289 -36.71642644 247.01740289 -38.5625 250.875 C-40.41790561 254.33519512 -40.41790561 254.33519512 -40 260 C-23.5 260 -7 260 10 260 C10.67320522 252.22493845 10.67320522 252.22493845 7.3125 247.0625 C6.81363281 246.51722656 6.31476563 245.97195313 5.80078125 245.41015625 C3.64729207 243.58821485 3.64729207 243.58821485 -1 242 C-1.33 237.71 -1.66 233.42 -2 229 C-5.96 229 -9.92 229 -14 229 C-12.329375 228.27296875 -12.329375 228.27296875 -10.625 227.53125 C18.43969066 214.80602739 43.71847923 201.17510033 55.90625 170.046875 C63.95709719 147.61951498 64.38628617 123.22054474 59 100 C58.82259277 99.22736816 58.64518555 98.45473633 58.46240234 97.65869141 C54.0505353 79.34888187 45.89221217 61.36062634 35 46 C32.65084715 48.25912544 31.21678784 50.23365317 29.8125 53.1875 C29.46832031 53.90292969 29.12414062 54.61835937 28.76953125 55.35546875 C28.51558594 55.89816406 28.26164063 56.44085938 28 57 C15.93911887 57.91989771 7.11765104 57.14908048 -3 50 C-9.05433678 44.42817203 -11.45912962 36.62261113 -14 29 C-14.13501597 24.66328697 -14.04296914 20.33988266 -14 16 C-8.72 14.35 -3.44 12.7 2 11 C-13.57293891 -4.57293891 -36.60050647 -11.19711426 -58.0625 -11.25 C-91.16611824 -11.1951769 -117.10112264 5.16875884 -139.22705078 28.98876953 Z " fill="#291806" transform="translate(208,32)"/>
<path d="M0 0 C2.80467928 3.32744495 4.37148086 6.90083977 5.875 10.9375 C6.13112061 11.62336182 6.38724121 12.30922363 6.65112305 13.01586914 C8.7609626 18.89695727 10.35973793 24.86383287 11.8125 30.9375 C12.0192334 31.80044678 12.2259668 32.66339355 12.43896484 33.55249023 C14.72209251 43.53085266 15.1818323 53.15046412 15.1875 63.375 C15.19974609 64.53 15.21199219 65.685 15.22460938 66.875 C15.24249518 77.43955074 13.65123123 87.01437675 10.25 97 C9.98759521 97.77400146 9.72519043 98.54800293 9.45483398 99.34545898 C1.95283816 120.78580934 -13.90689217 137.72856627 -34 148 C-41.48577497 151.55407714 -49.09046153 154.83225016 -56.73193359 158.03540039 C-58.17317615 158.64835511 -59.5991735 159.29958675 -61 160 C-57.04 160 -53.08 160 -49 160 C-48.99742187 160.90363281 -48.99484375 161.80726563 -48.9921875 162.73828125 C-48.87711972 166.2478484 -48.67549292 169.55235431 -48 173 C-45.31704343 175.0915032 -45.31704343 175.0915032 -42 176 C-39.125 178.625 -39.125 178.625 -37 182 C-37 184.97 -37 187.94 -37 191 C-53.5 191 -70 191 -87 191 C-86 182 -86 182 -84 178 C-83.71519194 175.9257375 -83.51125776 173.83928561 -83.375 171.75 C-83.26285156 170.13351562 -83.26285156 170.13351562 -83.1484375 168.484375 C-83.09945312 167.66453125 -83.05046875 166.8446875 -83 166 C-79.7 165.01 -76.4 164.02 -73 163 C-74.4319873 162.97494385 -75.86397461 162.9498877 -77.33935547 162.92407227 C-82.68823101 162.82939512 -88.03699479 162.72932535 -93.38574219 162.62768555 C-95.69398369 162.58456349 -98.00225244 162.54287402 -100.31054688 162.50268555 C-103.64201037 162.44442809 -106.97333954 162.38089797 -110.3046875 162.31640625 C-111.32488983 162.29969376 -112.34509216 162.28298126 -113.39620972 162.26576233 C-118.941618 162.15293081 -124.40227689 161.8402003 -129.91467285 161.21716309 C-132.49254671 160.94870687 -135.0345781 160.90049397 -137.625 160.9375 C-138.46289062 160.94652344 -139.30078125 160.95554687 -140.1640625 160.96484375 C-140.76992187 160.97644531 -141.37578125 160.98804688 -142 161 C-141.6803125 161.69222656 -141.360625 162.38445312 -141.03125 163.09765625 C-139.88601169 166.320808 -139.66067897 169.02708893 -139.5 172.4375 C-139.33583478 175.91369846 -139.09102133 178.73210769 -137.96875 182.03515625 C-137 185 -137 185 -137 191 C-153.5 191 -170 191 -187 191 C-185.86363636 179.63636364 -185.86363636 179.63636364 -182 176 C-179 174 -179 174 -175 174 C-175 167.4 -175 160.8 -175 154 C-173.576875 154.474375 -172.15375 154.94875 -170.6875 155.4375 C-165.15517887 157.11539997 -159.75408561 157.68275954 -154 158 C-155.4540625 157.29037109 -155.4540625 157.29037109 -156.9375 156.56640625 C-178.17070433 146.12893084 -197.28403908 135.07495408 -212 116 C-211.505 115.01 -211.505 115.01 -211 114 C-208.57935723 115.58593837 -207.12820912 116.77305072 -205.69140625 119.31640625 C-196.79661289 133.42893059 -174.53496713 143.94708886 -159.046875 147.71923828 C-130.41173765 154.1128627 -98.62331222 156.99516748 -70 149 C-69.21109375 148.79101074 -68.4221875 148.58202148 -67.609375 148.36669922 C-44.45682136 142.13511472 -20.77330035 131.59487634 -7.94677734 110.24707031 C-3.70681702 102.79052101 -0.42240678 94.97449886 2.375 86.875 C2.61371826 86.19622803 2.85243652 85.51745605 3.09838867 84.81811523 C6.90365149 73.11607194 7.36418738 60.89560388 7.3125 48.6875 C7.31026428 47.67410049 7.31026428 47.67410049 7.3079834 46.64022827 C7.25203112 32.49787294 5.79073516 19.75142782 0.76953125 6.41796875 C0 4 0 4 0 0 Z " fill="#0B612F" transform="translate(255,101)"/>
<path d="M0 0 C5.25843109 3.77807829 9.33637324 8.38545436 11.26171875 14.625 C12.0549606 21.79468592 12.73004915 29.4511557 8.69921875 35.75 C7.0390625 37.79296875 7.0390625 37.79296875 5.26171875 39.625 C4.68550781 40.21925781 4.10929687 40.81351563 3.515625 41.42578125 C-2.94022203 47.45027992 -9.6276438 48.14550337 -18.2578125 48 C-25.03145981 47.27017941 -29.55925996 44.17056447 -34.11328125 39.25 C-39.85605766 31.78439067 -40.90196882 24.95666604 -39.73828125 15.625 C-37.34970838 7.87540802 -32.92292794 2.57643307 -25.93359375 -1.40234375 C-17.41969567 -5.23536425 -8.02850332 -4.55077805 0 0 Z " fill="#FBFCFA" transform="translate(193.73828125,119.375)"/>
<path d="M0 0 C6.77575652 3.33361019 12.15587967 8.31389497 14.87890625 15.41796875 C16.80255236 23.22143881 16.29124811 31.78068779 12.5 38.9375 C8.28354485 44.87177021 3.78132949 49.3820042 -3.5 50.9375 C-10.02684961 51.68587937 -15.11451324 50.80050738 -20.5 46.9375 C-25.89268999 42.00843494 -29.19211183 36.76472102 -29.78125 29.44140625 C-30.00026678 20.2335756 -29.63938123 12.46893569 -23.140625 5.32421875 C-16.0616 -0.65924286 -8.87563038 -2.69438779 0 0 Z " fill="#FAFCFA" transform="translate(81.5,109.0625)"/>
<path d="M0 0 C-1.27809299 7.61940054 -4.06295511 14.08035012 -7.37548828 21.03759766 C-8.24310588 22.86051504 -9.09725279 24.6892547 -9.94921875 26.51953125 C-13.38429612 33.82601222 -17.03900521 40.96482715 -21 48 C-31.30953035 48.51622831 -38.06604072 47.33360966 -46.25 40.875 C-53.36133526 34.1894932 -55.51143651 26.8356598 -55.95703125 17.2734375 C-55.97121094 16.52320312 -55.98539063 15.77296875 -56 15 C-53.84271412 14.27995853 -51.68520818 13.56059143 -49.52734375 12.84228516 C-47.97721504 12.32567541 -46.42760899 11.80749004 -44.87890625 11.28662109 C-34.85831923 7.93280178 -24.77640055 5.09266881 -14.5 2.625 C-13.40751953 2.36227295 -12.31503906 2.0995459 -11.18945312 1.82885742 C-3.40499119 0 -3.40499119 0 0 0 Z " fill="#C6B198" transform="translate(254,37)"/>
<path d="M0 0 C2.13662109 0.69416016 2.13662109 0.69416016 4.31640625 1.40234375 C9.81417943 3.05274173 15.25032228 3.87744438 20.9375 4.5625 C22.78083756 4.78574157 24.62335325 5.01590856 26.46484375 5.25390625 C27.265271 5.35002197 28.06569824 5.4461377 28.89038086 5.54516602 C31 6 31 6 34 8 C35.63709605 12.28163583 35.37198745 17.18462307 35.62109375 21.7109375 C35.88332239 25.00923778 35.88332239 25.00923778 37.03515625 28.0390625 C38 31 38 31 38 37 C21.5 37 5 37 -12 37 C-10.86363636 25.63636364 -10.86363636 25.63636364 -7 22 C-4 20 -4 20 0 20 C0 13.4 0 6.8 0 0 Z " fill="#2DA747" transform="translate(80,255)"/>
<path d="M0 0 C1.68996094 -0.03867187 1.68996094 -0.03867187 3.4140625 -0.078125 C6.375 0.25 6.375 0.25 8.23828125 1.56640625 C10.26812532 4.57280761 9.8950386 6.72529394 9.375 10.25 C7.72039599 13.23650156 5.63438646 15.70185788 3.375 18.25 C2.90320313 18.82621094 2.43140625 19.40242188 1.9453125 19.99609375 C-6.45598174 29.42034351 -21.00758354 37.50890218 -33.53125 38.5859375 C-43.66031821 38.94132227 -43.66031821 38.94132227 -46.52734375 36.88671875 C-48.38671283 34.11420756 -48.17359139 32.54154832 -47.625 29.25 C-40.71056292 15.10683326 -25.72245227 6.80107532 -11.625 1.25 C-7.74681338 0.2174178 -4.00693352 0.05526805 0 0 Z " fill="#FCFEFC" transform="translate(136.625,32.75)"/>
<path d="M0 0 C0.00386719 1.35544922 0.00386719 1.35544922 0.0078125 2.73828125 C0.12288028 6.2478484 0.32450708 9.55235431 1 13 C3.68295657 15.0915032 3.68295657 15.0915032 7 16 C9.875 18.625 9.875 18.625 12 22 C12 24.97 12 27.94 12 31 C-4.5 31 -21 31 -38 31 C-37 22 -37 22 -35 18 C-34.71519194 15.9257375 -34.51125776 13.83928561 -34.375 11.75 C-34.30023438 10.67234375 -34.22546875 9.5946875 -34.1484375 8.484375 C-34.09945312 7.66453125 -34.05046875 6.8446875 -34 6 C-22.60657951 2.80039694 -11.90989056 0 0 0 Z " fill="#2DA647" transform="translate(206,261)"/>
<path d="M0 0 C2.5 0.25 2.5 0.25 4.5 2.25 C4.875 4.5625 4.875 4.5625 4.5 7.25 C3.84 8.013125 3.18 8.77625 2.5 9.5625 C-0.40052537 13.46008096 -0.18465612 15.45740718 0.5 20.25 C4.91431315 25.51869634 12.91109531 27.21163393 19.5 28.25 C35.79500442 29.12940136 35.79500442 29.12940136 51.1875 24.625 C53.86665912 22.35520884 53.86665912 22.35520884 53.9375 18.5625 C53.77145366 16.29320004 53.47510572 14.05729981 53.18359375 11.80078125 C53.03083984 10.60001953 53.03083984 10.60001953 52.875 9.375 C52.75898438 8.63507813 52.64296875 7.89515625 52.5234375 7.1328125 C52.51183594 6.20082031 52.51183594 6.20082031 52.5 5.25 C53.16 4.59 53.82 3.93 54.5 3.25 C57 3.3125 57 3.3125 59.5 4.25 C61.52504256 8.08435894 61.79745114 11.45605782 61.8125 15.75 C61.82925781 16.8534375 61.84601563 17.956875 61.86328125 19.09375 C61.32951947 23.73116413 59.53022262 26.27546509 56.1875 29.4375 C45.54100736 36.61769271 26.76375528 35.73638044 14.48828125 33.68359375 C11.42815785 33.00475105 8.4791555 32.2206858 5.5 31.25 C4.78585938 31.02183594 4.07171875 30.79367188 3.3359375 30.55859375 C-0.87026032 28.99245626 -3.61582894 26.64314242 -6.5 23.25 C-8.40533959 17.53398122 -8.46358797 10.79774892 -6.125 5.1875 C-3.44594595 0.34459459 -3.44594595 0.34459459 0 0 Z " fill="#2D1B09" transform="translate(93.5,161.75)"/>
<path d="M0 0 C12.25520638 0.87537188 24.21090185 4.70304882 36 8 C35.29403528 12.15636729 33.34001966 13.47996346 30.109375 16.08984375 C25.23181325 20.50674689 21.13531604 25.95971669 17.359375 31.3359375 C16.68648437 32.15964844 16.68648437 32.15964844 16 33 C15.34 33 14.68 33 14 33 C12.02911922 29.00606543 10.07560412 25.00387161 8.125 21 C7.56941406 19.87464844 7.01382813 18.74929687 6.44140625 17.58984375 C3.61454267 11.76582361 1.23277345 6.36672873 0 0 Z " fill="#C3AF96" transform="translate(40,36)"/>
<path d="M0 0 C3.90209164 0.92334746 5.69749115 2.64898086 8.41015625 5.5703125 C10.00942775 8.7688555 9.77143533 12.09132879 9.41015625 15.5703125 C7.9930421 19.11309788 6.81142703 20.31171578 3.59765625 22.3828125 C0.12487948 23.67659208 -1.92525596 24.10473155 -5.58984375 23.5703125 C-8.59670249 21.95123472 -10.84795165 20.51453882 -12.96484375 17.8203125 C-14.19716918 13.38394097 -14.59524324 9.67215158 -12.59765625 5.49609375 C-9.12918711 0.66571158 -5.86113381 -0.40665483 0 0 Z " fill="#2C1705" transform="translate(189.58984375,125.4296875)"/>
<path d="M0 0 C2.93350557 1.96296766 5.62589014 3.98751534 6.3828125 7.48828125 C5.62250072 11.57495709 3.17821291 12.84961625 -0.1171875 15.17578125 C-5.69120382 17.03378669 -12.61294018 17.2315073 -18.26953125 15.52734375 C-21.34562489 13.7674271 -22.16060997 12.05008462 -23.3046875 8.73828125 C-23.1171875 5.17578125 -23.1171875 5.17578125 -20.8671875 2.30078125 C-15.38766207 -1.93339749 -6.47061124 -2.51900179 0 0 Z " fill="#026E28" transform="translate(214.1171875,171.82421875)"/>
<path d="M0 0 C2.4375 2.8125 2.4375 2.8125 3.0625 5.875 C2.302378 9.44757338 1.29527278 10.58978784 -1.5625 12.8125 C-6.54586137 15.83967346 -11.92269716 15.5030881 -17.5625 14.8125 C-20.83133736 13.69631163 -23.2578498 12.41011421 -25.5625 9.8125 C-26.4375 6.3125 -26.4375 6.3125 -25.5625 2.8125 C-22.4724571 -0.65437741 -20.71629089 -1.88272505 -16.25 -3.0625 C-4.70862635 -3.45373301 -4.70862635 -3.45373301 0 0 Z " fill="#026E28" transform="translate(65.5625,168.1875)"/>
<path d="M0 0 C0.99 0 1.98 0 3 0 C1.72190701 7.61940054 -1.06295511 14.08035012 -4.37548828 21.03759766 C-5.24310588 22.86051504 -6.09725279 24.6892547 -6.94921875 26.51953125 C-10.38429612 33.82601222 -14.03900521 40.96482715 -18 48 C-28.24480561 48.51194148 -35.10741458 47.46409209 -43.0625 40.75 C-44.05151293 39.84396548 -45.03464992 38.93120586 -46 38 C-43.42263647 36.71131824 -42.75926485 37.30316871 -40 38 C-31.13043675 38.67108034 -31.13043675 38.67108034 -22.625 36.625 C-14.95643055 28.95643055 -9.40295232 20.1694193 -4.04882812 10.81494141 C-3.31919721 9.55235382 -2.57167083 8.30000885 -1.81054688 7.05615234 C-0.81476031 5.40490593 0.10001142 3.7053522 1 2 C0.505 1.01 0.505 1.01 0 0 Z " fill="#958271" transform="translate(251,37)"/>
<path d="M0 0 C1.30070613 2.60141226 0.99265049 4.4143763 0.875 7.3125 C0.83641675 13.22345348 1.97992177 15.78443032 5.9375 20.125 C10.61165687 22.9867287 15.67534655 23.88833698 21 25 C21.73863281 25.18820313 22.47726563 25.37640625 23.23828125 25.5703125 C27.54629957 26.24058409 31.83442946 26.1844323 36.1875 26.1875 C37.53038086 26.20586914 37.53038086 26.20586914 38.90039062 26.22460938 C48.01581997 26.24435399 58.47895937 25.41683251 65.875 19.5 C68.48727079 16.01697229 68.29368481 11.99833649 68.5625 7.8125 C68.68818359 5.90404297 68.68818359 5.90404297 68.81640625 3.95703125 C68.87699219 2.98121094 68.93757813 2.00539062 69 1 C71.95649207 3.95649207 72.19262409 6.66850244 72.3125 10.6875 C72.25991603 15.82570547 71.09605697 19.86236831 68 24 C58.98402759 32.20736502 43.78012792 31.65462424 32.40234375 31.32421875 C22.06201545 30.81789544 9.28334787 30.02947523 1.453125 22.515625 C-2.32325351 18.23007186 -3.27635254 14.80759338 -3.234375 9.140625 C-2.85862441 5.70876965 -1.53698593 3.07397186 0 0 Z " fill="#EBF1E9" transform="translate(86,169)"/>
<path d="M0 0 C2.9228334 1.83100932 5.43323854 3.86647708 7 7 C7.51512617 11.09157355 7.94367269 15.23589546 5.953125 18.95703125 C3.27202033 22.19801366 1.36212098 23.84865322 -2.8125 24.3125 C-6.77698767 23.92382474 -8.21158832 22.78841168 -11 20 C-13.52470277 16.51350569 -13.36226929 13.20232375 -13 9 C-10.47497999 2.43494797 -7.36013588 -1.17762174 0 0 Z " fill="#2E1907" transform="translate(71,118)"/>
<path d="M0 0 C2.4375 1.5625 2.4375 1.5625 4 4 C4.70186729 7.88419737 4.56835411 10.94448523 2.6875 14.4375 C0.18398593 16.75556859 -2.02982139 17.00386574 -5.375 17.4375 C-9 17 -9 17 -12 14.4375 C-14 11 -14 11 -14.0625 7.375 C-12.93025993 3.77847271 -11.92814395 2.3070225 -9 0 C-5.81452856 -1.59273572 -3.39809153 -0.76164121 0 0 Z " fill="#F7FCF7" transform="translate(82,72)"/>
<path d="M0 0 C0.6909375 -0.020625 1.381875 -0.04125 2.09375 -0.0625 C7.1913912 -0.10082813 10.73478524 0.84459034 15.25 3.25 C16.1875 5.4375 16.1875 5.4375 16.25 7.25 C13.43175808 8.65912096 11.07748718 8.36183553 7.9296875 8.34765625 C6.67285156 8.34443359 5.41601562 8.34121094 4.12109375 8.33789062 C2.80238281 8.32951172 1.48367187 8.32113281 0.125 8.3125 C-1.21484211 8.30748489 -2.554686 8.30292201 -3.89453125 8.29882812 C-7.17973206 8.28701086 -10.46484397 8.27053617 -13.75 8.25 C-14.08 6.93 -14.41 5.61 -14.75 4.25 C-9.93635942 0.43228505 -6.0026676 0.04381509 0 0 Z " fill="#65EF65" transform="translate(196.75,274.75)"/>
<path d="M0 0 C0.6909375 -0.020625 1.381875 -0.04125 2.09375 -0.0625 C7.19273619 -0.10083824 10.73077515 0.8513345 15.25 3.25 C16.25 5.375 16.25 5.375 16.25 7.25 C15.25 8.25 15.25 8.25 12.47436523 8.36352539 C11.26466064 8.35828857 10.05495605 8.35305176 8.80859375 8.34765625 C7.50341797 8.34443359 6.19824219 8.34121094 4.85351562 8.33789062 C3.4648431 8.32953401 2.07617123 8.32106905 0.6875 8.3125 C-0.70507656 8.30748666 -2.09765481 8.30292347 -3.49023438 8.29882812 C-6.9101987 8.28699434 -10.33007844 8.2705088 -13.75 8.25 C-13.13722388 5.28824877 -12.49627478 3.86941217 -10.75 1.25 C-7.12762495 0.04254165 -3.7729405 0.02753971 0 0 Z " fill="#66EF66" transform="translate(87.75,274.75)"/>
<path d="M0 0 C-0.96535008 0.93120586 -1.94848707 1.84396548 -2.9375 2.75 C-3.75541016 3.51570313 -3.75541016 3.51570313 -4.58984375 4.296875 C-11.68694262 9.31200484 -17.98029828 10.57742076 -26.5625 10.25 C-27.93245117 10.22292969 -27.93245117 10.22292969 -29.33007812 10.1953125 C-31.55453514 10.14872701 -33.77666967 10.08335485 -36 10 C-36 9.34 -36 8.68 -36 8 C-35.24380371 7.79842285 -34.48760742 7.5968457 -33.70849609 7.38916016 C-30.26348507 6.46968075 -26.81923874 5.54736787 -23.375 4.625 C-22.18519531 4.30789062 -20.99539062 3.99078125 -19.76953125 3.6640625 C-18.61582031 3.3546875 -17.46210938 3.0453125 -16.2734375 2.7265625 C-15.21560059 2.44377441 -14.15776367 2.16098633 -13.06787109 1.86962891 C-10.9444912 1.26772861 -8.84026711 0.59549886 -6.75634766 -0.13134766 C-3.91846754 -1.02569464 -2.72842786 -1.04939533 0 0 Z " fill="#FAF9F7" transform="translate(244,43)"/>
<path d="M0 0 C1.65 0 3.3 0 5 0 C4.01 0.33 3.02 0.66 2 1 C6.5179594 9.12271424 11.17759895 16.96585697 16.53125 24.57421875 C18 27 18 27 18 30 C17.34 30.99 16.68 31.98 16 33 C15.34 33 14.68 33 14 33 C12.02911922 29.00606543 10.07560412 25.00387161 8.125 21 C7.56941406 19.87464844 7.01382813 18.74929687 6.44140625 17.58984375 C3.61454267 11.76582361 1.23277345 6.36672873 0 0 Z " fill="#968372" transform="translate(40,36)"/>
<path d="M0 0 C7.76624381 1.71636423 15.41902924 3.58709508 23 6 C21.125 9.875 21.125 9.875 20 11 C13.54222193 11.33153771 9.0786768 9.25679943 3.84765625 5.66796875 C1.8964815 3.90654884 0.99878196 2.41067269 0 0 Z " fill="#FAF9F7" transform="translate(51,40)"/>
<path d="M0 0 C0 0.66 0 1.32 0 2 C-3.4974306 2.98850238 -6.99834559 3.96407571 -10.5 4.9375 C-11.97339844 5.35418945 -11.97339844 5.35418945 -13.4765625 5.77929688 C-18.97723964 7.30115088 -24.28661351 8.69205371 -30 9 C-30.66 8.34 -31.32 7.68 -32 7 C-27.60677739 5.82334772 -23.21003315 4.66042902 -18.8125 3.5 C-17.56662109 3.16613281 -16.32074219 2.83226562 -15.03710938 2.48828125 C-13.83505859 2.17246094 -12.63300781 1.85664062 -11.39453125 1.53125 C-10.28956299 1.23798828 -9.18459473 0.94472656 -8.04614258 0.64257812 C-5.25014522 0.05276767 -2.84382579 -0.12958035 0 0 Z " fill="#BEA991" transform="translate(244,40)"/>
<path d="M0 0 C2.42581871 2.42581871 2.96355664 4.07433869 3.09765625 7.48046875 C3.08605469 8.37378906 3.07445312 9.26710937 3.0625 10.1875 C3.05347656 11.08855469 3.04445312 11.98960937 3.03515625 12.91796875 C3.02355469 13.60503906 3.01195312 14.29210937 3 15 C2.01 14.34 1.02 13.68 0 13 C-0.29296875 9.9609375 -0.29296875 9.9609375 -0.1875 6.375 C-0.16042969 5.18648437 -0.13335937 3.99796875 -0.10546875 2.7734375 C-0.07066406 1.85820312 -0.03585938 0.94296875 0 0 Z " fill="#C9D8C3" transform="translate(155,170)"/>
<path d="M0 0 C-1.38290829 1.98793067 -2.56167198 2.88705658 -4.91015625 3.4921875 C-7.0625 3.8125 -7.0625 3.8125 -11 4 C-11.66 3.34 -12.32 2.68 -13 2 C-11.21089097 1.47044766 -9.41860852 0.9516063 -7.625 0.4375 C-6.62726563 0.14746094 -5.62953125 -0.14257812 -4.6015625 -0.44140625 C-2 -1 -2 -1 0 0 Z " fill="#B5A089" transform="translate(225,45)"/>
<path d="M0 0 C2.875 -0.125 2.875 -0.125 6 0 C6.66 0.66 7.32 1.32 8 2 C4.7 2.66 1.4 3.32 -2 4 C-1.34 2.68 -0.68 1.36 0 0 Z " fill="#C5B29B" transform="translate(226,43)"/>
</svg>
